Coordinates
version=1
nRows=32
nColumns=12
inDegrees=yes

Units are S.I. units (second, meters, Newtons, ...)
Angles are in degrees

endheader
time	SC_y	SC_z	SC_x	AC_y	AC_z	AC_x	GH_y	GH_z	GH_yy	EL_x	PS_y
       0.0              -49.86          24.42          64.61          69.36         -11.11          10.59          113.5          32.21          163.8          6.706          44.83
  0.009152              -49.86          24.42          64.61          69.35         -11.11          10.59          113.4          32.22          163.7          6.715          44.83
    0.0183              -49.85          24.42           64.6          69.35         -11.11          10.59          113.4          32.23          163.7          6.725          44.84
   0.02746              -49.85          24.42           64.6          69.34         -11.11          10.59          113.4          32.23          163.7          6.735          44.85
   0.03661              -49.85          24.41          64.59          69.34         -11.11           10.6          113.4          32.24          163.7          6.746          44.86
   0.04576              -49.85          24.41          64.58          69.33         -11.11           10.6          113.4          32.24          163.7          6.758          44.88
   0.05491              -49.85          24.41          64.57          69.32         -11.12           10.6          113.4          32.25          163.7           6.77          44.89
   0.06406              -49.85           24.4          64.56          69.32         -11.12           10.6          113.3          32.26          163.7          6.783           44.9
   0.07322              -49.85           24.4          64.56          69.31         -11.12           10.6          113.3          32.27          163.7          6.798          44.91
   0.08237              -49.84           24.4          64.55           69.3         -11.12           10.6          113.3          32.28          163.6          6.813          44.93
   0.09152              -49.84          24.39          64.54          69.29         -11.12          10.61          113.3          32.29          163.6          6.829          44.95
    0.1007              -49.84          24.39          64.52          69.28         -11.13          10.61          113.2           32.3          163.6          6.847          44.96
    0.1098              -49.84          24.38          64.51          69.27         -11.13          10.61          113.2          32.31          163.6          6.866          44.98
     0.119              -49.84          24.38           64.5          69.26         -11.13          10.61          113.2          32.32          163.6          6.886           45.0
    0.1281              -49.83          24.37          64.49          69.25         -11.13          10.61          113.1          32.33          163.5          6.908          45.02
    0.1373              -49.83          24.37          64.47          69.23         -11.14          10.62          113.1          32.34          163.5          6.932          45.05
    0.1464              -49.83          24.36          64.45          69.22         -11.14          10.62          113.1          32.36          163.5          6.958          45.07
    0.1556              -49.82          24.35          64.44           69.2         -11.14          10.62          113.0          32.38          163.5          6.987           45.1
    0.1647              -49.82          24.35          64.42          69.19         -11.15          10.63          113.0          32.39          163.4          7.018          45.13
    0.1739              -49.82          24.34           64.4          69.17         -11.15          10.63          112.9          32.41          163.4          7.052          45.17
     0.183              -49.81          24.33          64.37          69.15         -11.16          10.63          112.8          32.43          163.4          7.089           45.2
    0.1922              -49.81          24.32          64.35          69.12         -11.16          10.64          112.8          32.46          163.3           7.13          45.24
    0.2013               -49.8          24.31          64.32           69.1         -11.17          10.64          112.7          32.48          163.3          7.176          45.29
    0.2105               -49.8           24.3          64.28          69.07         -11.17          10.65          112.6          32.51          163.2          7.226          45.34
    0.2196              -49.79          24.28          64.25          69.04         -11.18          10.66          112.5          32.55          163.2          7.282          45.39
    0.2288              -49.78          24.27          64.21          69.01         -11.19          10.66          112.4          32.58          163.1          7.344          45.45
     0.238              -49.78          24.25          64.17          68.97          -11.2          10.67          112.3          32.62          163.0          7.414          45.52
    0.2471              -49.77          24.23          64.12          68.92         -11.21          10.68          112.2          32.67          162.9          7.492           45.6
    0.2563              -49.76          24.21          64.06          68.87         -11.22          10.69          112.1          32.72          162.9          7.581          45.69
    0.2654              -49.74          24.19           64.0          68.82         -11.23           10.7          111.9          32.78          162.7          7.682          45.79
    0.2746              -49.73          24.16          63.92          68.75         -11.25          10.71          111.7          32.84          162.6          7.797           45.9
    0.2837              -49.72          24.13          63.84          68.68         -11.26          10.73          111.5          32.92          162.5          7.929          46.03
